<svg xmlns="http://www.w3.org/2000/svg" width="72" height="64.731" viewBox="-0.5 -0.5 72 64.731"><g transform="matrix(.6923 0 0 .6923 .192 -.154)"><path pointer-events="all" fill="none" stroke="#000" stroke-width="4" d="M1 41h100v50H1z"/><path pointer-events="stroke" stroke-miterlimit="10" d="M1 41V31q0-10 10-10h80q10 0 10 10v10" fill="none" stroke="#000" stroke-width="4"/><path pointer-events="all" d="M33 59.9h11.9V48h12.2v11.9H69v12.2H57.1V84H44.9V72.1H33z" fill="#ff392e"/><rect pointer-events="all" ry="1.2" rx="1.2" height="8" width="16" y="38" x="10.29" stroke="#000" stroke-width="3"/><path pointer-events="stroke" stroke-miterlimit="10" d="M31 19v-7.5Q31 4 41 4h20q10 0 10 7.5V19" fill="none" stroke="#000" stroke-width="9"/><rect pointer-events="all" ry="1.2" rx="1.2" height="8" width="16" y="38" x="75" stroke="#000" stroke-width="3"/></g><path d="M20.571 49.705c1.212-.548 2.19-1.798 4.183-5.239 1.7-2.951 1.877-3.186 2.404-3.186.313 0 .88-.136 1.271-.293l.723-.313-.723-.469c-.391-.273-.88-.488-1.095-.488-.664 0-1.407-.43-1.7-.997-.43-.84-.332-1.505.293-2.15.782-.763 1.896-.802 2.639-.059.273.293.508.645.508.782 0 .156.371.45.801.684l.821.41-.097-.996c-.176-1.779-1.623-3.03-3.5-3.01-2.54.039-4.065 2.677-2.912 5.003l.45.88-1.818 3.147c-2.091 3.655-2.717 4.32-4.026 4.32-2.522 0-3.89-2.21-2.815-4.516.254-.527.528-.957.606-.957.078 0 .45.371.82.801l.665.821.137-1.857c.078-1.016.254-2.443.41-3.186.157-.743.255-1.368.216-1.427-.059-.039-.508.196-.997.548-1.095.742-2.267 2.286-3.303 4.339-.645 1.27-.763 1.68-.763 2.756 0 .918.137 1.524.45 2.17.508 1.094 1.955 2.384 2.912 2.658 1.075.293 2.58.234 3.44-.176z"/><path d="M34.156 40.205c1.642-.527 2.736-2.013 2.736-3.655-.02-1.994-1.387-3.479-4.085-4.456-2.99-1.075-4.71-2.659-4.71-4.36 0-.644-.059-.722-.489-.722-.39 0-.489.097-.489.508 0 2.17 2.17 4.417 5.18 5.356 1.974.625 3.284 1.7 3.636 3.01.273 1.036-.196 2.267-1.154 3.01-.625.488-.84.527-2.365.527-1.29 0-1.896-.097-2.6-.43-.781-.351-.918-.37-1.016-.117-.176.45-.176.45.939.958 1.329.606 3.205.762 4.417.371z"/></svg>