<svg xmlns="http://www.w3.org/2000/svg" version="1.0" width="24" height="24" viewBox="0 0 18 18"><path d="M12.705.28c-.943.428-1.704 1.405-3.256 4.09C8.125 6.676 7.989 6.86 7.577 6.86c-.243 0-.684.106-.989.228l-.563.245.563.366c.305.214.685.381.852.381.518 0 1.096.336 1.324.779.335.656.259 1.175-.228 1.679-.609.595-1.476.625-2.054.046-.213-.23-.396-.504-.396-.611 0-.122-.289-.351-.624-.534l-.639-.32.076.778c.137 1.389 1.263 2.365 2.724 2.35 1.978-.03 3.165-2.09 2.267-3.907l-.35-.687 1.415-2.457c1.628-2.854 2.115-3.373 3.135-3.373 1.962 0 3.027 1.725 2.19 3.526-.197.412-.41.747-.471.747-.06 0-.35-.29-.64-.625l-.516-.641-.107 1.45c-.06.793-.198 1.907-.32 2.487-.121.58-.197 1.069-.167 1.114.046.031.396-.152.776-.427.852-.58 1.765-1.786 2.572-3.388.502-.992.593-1.313.593-2.152 0-.717-.107-1.19-.35-1.694-.396-.855-1.522-1.862-2.267-2.076-.837-.229-2.009-.183-2.678.137z"/><path d="M2.13 7.698C.852 8.11 0 9.27 0 10.552c.015 1.557 1.08 2.717 3.18 3.48 2.328.84 3.667 2.075 3.667 3.403 0 .504.046.565.38.565.305 0 .38-.076.38-.397 0-1.694-1.688-3.45-4.031-4.182-1.537-.488-2.557-1.328-2.83-2.35-.213-.809.152-1.77.897-2.35.487-.382.655-.413 1.841-.413 1.005 0 1.476.077 2.024.336.609.275.715.29.791.092.137-.351.137-.351-.73-.748-1.035-.473-2.495-.595-3.439-.29z"/></svg>